<?xml version="1.0" standalone="no"?>
<!DOCTYPE svg PUBLIC "-//W3C//DTD SVG 20010904//EN"
 "http://www.w3.org/TR/2001/REC-SVG-20010904/DTD/svg10.dtd">
<svg version="1.0" xmlns="http://www.w3.org/2000/svg"
 width="1024.000000pt" height="1024.000000pt" viewBox="0 0 1024.000000 1024.000000"
 preserveAspectRatio="xMidYMid meet">

<g transform="translate(0.000000,1024.000000) scale(0.100000,-0.100000)"
fill="#000000" stroke="none">
<path d="M4819 10229 c-1250 -72 -2434 -603 -3319 -1489 -1321 -1323 -1814
-3242 -1295 -5040 464 -1606 1702 -2896 3288 -3424 537 -179 1042 -259 1622
-259 812 0 1535 167 2260 523 774 380 1435 950 1939 1670 440 628 737 1374
855 2145 69 451 75 963 15 1435 -124 985 -552 1939 -1211 2697 -223 257 -537
548 -808 748 -962 713 -2142 1063 -3346 994z m2660 -4454 c507 -1661 924
-3028 927 -3038 5 -16 -6 -17 -171 -15 l-176 3 -45 175 c-141 551 -336 1087
-510 1404 -180 326 -362 516 -605 630 -132 62 -193 77 -349 83 -158 6 -249
-11 -373 -71 -201 -97 -461 -366 -640 -661 -77 -128 -230 -428 -333 -653 -48
-106 -91 -189 -94 -185 -4 5 -38 76 -75 158 -100 223 -286 586 -360 703 -145
232 -360 471 -515 574 -153 101 -271 138 -448 138 -57 0 -138 -7 -180 -16
-228 -47 -455 -199 -628 -419 -246 -316 -499 -933 -694 -1697 l-43 -168 -174
0 c-95 0 -173 2 -173 5 0 10 1842 6050 1848 6059 8 14 -23 116 738 -2411 384
-1278 703 -2321 708 -2320 7 2 1400 4604 1431 4726 3 13 8 22 10 20 2 -2 418
-1363 924 -3024z"/>
</g>
</svg>
