<?xml version="1.0" standalone="no"?>
<!DOCTYPE svg PUBLIC "-//W3C//DTD SVG 20010904//EN"
 "http://www.w3.org/TR/2001/REC-SVG-20010904/DTD/svg10.dtd">
<svg version="1.0" xmlns="http://www.w3.org/2000/svg"
 width="1513.000000pt" height="623.000000pt" viewBox="0 0 1513.000000 623.000000"
 preserveAspectRatio="xMidYMid meet">
<metadata>
Created by potrace 1.16, written by Peter Selinger 2001-2019
</metadata>
<g transform="translate(0.000000,623.000000) scale(0.100000,-0.100000)"
fill="#000000" stroke="none">
<path d="M10269 5326 c-2 -2 -114 -9 -249 -15 -2266 -107 -4765 -617 -6637
-1355 -288 -114 -276 -102 -116 -103 193 0 294 -29 382 -109 58 -52 84 -120
89 -236 l4 -98 -176 0 -176 0 0 60 c0 75 -20 117 -65 136 -96 40 -185 -14
-185 -112 0 -78 41 -114 277 -243 292 -159 353 -236 353 -449 0 -199 -53 -298
-197 -371 -100 -50 -328 -70 -468 -41 -128 26 -245 103 -290 190 -24 46 -45
154 -45 233 l0 67 190 0 190 0 0 -88 c0 -96 10 -121 60 -147 37 -19 113 -19
150 0 40 20 60 63 60 125 0 48 -3 55 -50 104 -33 35 -87 73 -162 116 -275 153
-339 204 -390 308 -30 60 -33 74 -33 161 0 112 20 179 70 246 l33 43 -71 -31
c-139 -60 -634 -314 -772 -397 -347 -207 -607 -402 -800 -601 -176 -181 -266
-317 -319 -483 -34 -103 -37 -262 -6 -350 70 -203 246 -381 518 -519 409 -210
1005 -350 1787 -422 371 -34 557 -40 1160 -40 595 0 770 6 1250 41 1999 144
4197 604 5859 1225 215 81 542 211 573 227 6 4 -48 7 -120 8 -253 1 -406 77
-469 232 -22 56 -23 66 -26 453 -3 448 1 493 63 586 81 122 252 183 478 170
212 -13 341 -83 402 -219 23 -51 29 -82 33 -160 l5 -98 -177 0 -176 0 0 63 c0
76 -23 125 -71 149 -67 35 -153 14 -189 -44 -19 -32 -20 -50 -20 -410 0 -208
4 -388 9 -401 5 -14 24 -35 43 -48 42 -30 129 -33 171 -5 48 33 57 63 57 201
l0 125 -70 0 -70 0 0 105 0 105 246 0 245 0 -3 -262 c-3 -249 -4 -266 -26
-313 -13 -27 -36 -67 -53 -87 l-30 -38 73 34 c205 95 265 125 413 203 756 403
1226 804 1383 1180 l37 88 0 160 c0 159 0 160 -32 227 -62 131 -139 221 -281
326 -345 255 -953 436 -1787 531 -156 18 -352 33 -780 61 -148 9 -1066 15
-1076 6z m-2354 -1491 c141 -27 226 -80 272 -169 23 -43 28 -67 31 -153 l4
-103 -171 0 -171 0 0 58 c0 99 -41 142 -135 142 -35 0 -52 -6 -77 -29 -31 -27
-33 -34 -33 -91 0 -61 1 -63 46 -104 25 -22 104 -72 175 -110 174 -93 253
-146 312 -211 69 -75 87 -131 86 -265 0 -126 -20 -195 -73 -266 -146 -195
-648 -205 -822 -17 -64 70 -81 120 -87 256 l-4 117 183 -2 184 -3 5 -90 c4
-49 10 -98 14 -107 21 -46 117 -70 178 -45 45 19 69 54 75 110 10 83 -50 149
-217 242 -341 188 -412 268 -412 462 0 221 111 343 349 383 79 13 206 11 288
-5z m-3045 -32 c0 -4 25 -140 55 -302 160 -864 195 -1056 195 -1063 0 -4 -83
-8 -185 -8 -183 0 -185 0 -190 23 -2 12 -23 146 -44 297 -115 790 -136 929
-139 925 -3 -3 -29 -172 -137 -890 -25 -165 -48 -312 -51 -327 l-6 -28 -184 0
c-153 0 -184 2 -184 14 0 8 24 146 54 308 70 373 118 635 151 813 14 77 30
164 36 193 l10 52 310 0 c170 0 309 -3 309 -7z m1125 -15 c4 -20 43 -265 144
-897 11 -68 22 -125 24 -127 3 -4 18 83 119 713 l53 333 283 0 282 0 0 -27 c0
-16 3 -93 5 -173 5 -147 25 -1049 25 -1134 l0 -46 -175 0 -175 0 -2 618 c-2
339 -6 610 -10 602 -3 -8 -52 -265 -108 -570 -56 -305 -106 -576 -112 -603
l-10 -47 -176 2 -176 3 -22 120 c-13 66 -61 329 -108 585 -48 256 -90 479 -95
495 -6 19 -9 -116 -10 -361 -1 -215 -4 -493 -8 -617 l-6 -227 -174 0 -173 0 4
23 c3 12 10 322 17 690 l12 667 284 0 283 0 5 -22z m2935 -520 c1 -423 4 -548
14 -566 20 -37 66 -62 114 -62 55 0 97 22 119 63 16 29 18 78 21 570 l3 537
175 0 175 0 -3 -562 -3 -563 -24 -59 c-64 -159 -214 -236 -461 -236 -237 0
-388 73 -452 217 -30 68 -33 147 -30 701 l2 502 175 0 175 0 0 -542z m1567
365 c29 -98 96 -326 149 -508 53 -181 99 -340 102 -353 2 -12 9 -25 14 -28 5
-3 7 5 4 18 -3 12 -8 254 -11 536 l-7 512 171 0 171 0 0 -685 0 -685 -247 2
-246 3 -153 503 c-84 276 -160 528 -169 558 -9 31 -18 54 -20 52 -2 -2 0 -190
5 -418 5 -228 10 -479 10 -557 l0 -143 -170 0 -170 0 0 685 0 685 258 0 257 0
52 -177z"/>
</g>
</svg>
