<?xml version="1.0" standalone="no"?>
<!DOCTYPE svg PUBLIC "-//W3C//DTD SVG 20010904//EN"
 "http://www.w3.org/TR/2001/REC-SVG-20010904/DTD/svg10.dtd">
<svg version="1.0" xmlns="http://www.w3.org/2000/svg"
 width="960.000000pt" height="570.000000pt" viewBox="0 0 960.000000 570.000000"
 preserveAspectRatio="xMidYMid meet">

<g transform="translate(0.000000,570.000000) scale(0.100000,-0.100000)"
fill="#000000" stroke="none">
<path d="M932 3692 c2 -5 75 -136 163 -292 187 -332 233 -389 368 -455 l77
-38 0 -119 0 -118 165 0 165 0 0 120 c0 106 2 121 18 126 70 24 135 67 202
134 68 68 89 100 233 357 86 154 157 284 157 287 0 13 -281 6 -313 -8 -46 -19
-63 -42 -169 -231 -53 -93 -109 -182 -125 -196 -89 -83 -218 -90 -314 -16 -33
25 -65 72 -141 207 -108 190 -127 216 -175 236 -36 15 -317 20 -311 6z"/>
<path d="M2965 3690 c-63 -13 -156 -50 -201 -81 -99 -67 -136 -120 -345 -488
-111 -196 -213 -374 -226 -397 -12 -22 -23 -44 -23 -47 0 -11 261 -8 301 3 19
5 47 22 61 37 14 16 94 150 177 298 84 149 167 285 184 304 43 45 101 71 162
71 118 0 176 -42 260 -189 l55 -96 -220 -3 -219 -2 -66 -118 c-37 -64 -67
-121 -68 -126 -1 -5 153 -8 350 -7 397 1 357 9 416 -83 56 -87 66 -91 243 -94
85 -2 154 -1 154 3 0 4 -55 105 -123 224 -68 119 -170 298 -227 398 -107 189
-157 253 -246 312 -113 75 -270 107 -399 81z"/>
<path d="M4100 3697 c0 -2 61 -111 135 -242 93 -165 135 -249 135 -270 0 -21
-42 -105 -135 -270 -74 -131 -135 -240 -135 -243 0 -2 69 -2 153 0 201 4 193
-1 307 199 113 199 98 191 331 187 157 -3 179 -5 198 -22 11 -10 55 -80 97
-155 43 -75 88 -148 102 -164 36 -38 78 -47 231 -47 116 0 132 2 127 16 -3 8
-63 115 -133 237 -104 182 -127 229 -127 262 0 33 22 78 126 260 70 121 130
228 134 238 6 17 -2 18 -148 15 -149 -3 -156 -4 -189 -29 -23 -18 -63 -77
-117 -171 -45 -80 -91 -153 -103 -164 -19 -17 -40 -19 -203 -22 -163 -2 -184
-1 -211 16 -21 13 -57 67 -115 170 -114 203 -113 202 -312 202 -81 0 -148 -1
-148 -3z"/>
<path d="M5790 3315 c0 -356 1 -389 19 -435 30 -78 81 -134 159 -172 l67 -33
395 0 c356 0 400 2 447 18 69 24 142 91 178 164 l30 58 3 393 3 394 -118 -4
c-104 -3 -122 -6 -151 -26 -65 -47 -66 -56 -72 -377 -5 -314 -8 -327 -62 -356
-31 -17 -410 -25 -463 -10 -23 6 -54 25 -70 41 l-30 31 -5 297 c-5 273 -7 300
-25 330 -32 53 -85 72 -203 72 l-102 0 0 -385z"/>
<path d="M7464 3691 c-55 -14 -134 -64 -170 -108 -73 -89 -74 -96 -74 -529 l0
-386 114 3 c124 4 145 13 190 73 20 26 21 44 26 327 l5 301 37 34 38 34 238 0
c260 0 267 -1 297 -60 12 -24 15 -79 15 -302 0 -264 1 -275 23 -318 35 -70 86
-91 210 -88 l98 3 -1 390 c0 387 -1 389 -24 441 -33 71 -87 128 -154 161 l-57
28 -390 2 c-214 1 -404 -2 -421 -6z"/>
<path d="M8775 3686 c-100 -43 -135 -176 -70 -262 72 -94 215 -89 278 9 40 60
40 117 1 184 -40 70 -135 101 -209 69z m143 -20 c44 -23 75 -74 80 -131 11
-154 -187 -227 -282 -103 -31 41 -41 97 -27 141 11 33 62 90 91 100 30 11 112
7 138 -7z"/>
<path d="M8760 3525 c0 -105 16 -148 22 -57 l3 47 40 0 c40 0 44 -4 91 -81 23
-38 25 -5 2 35 l-23 41 23 15 c14 10 22 26 22 45 0 47 -22 60 -106 60 l-74 0
0 -105z m148 73 c19 -19 14 -48 -10 -57 -19 -7 -36 -7 -105 -2 -8 1 -13 15
-13 36 l0 35 58 0 c32 0 63 -5 70 -12z"/>
<path d="M924 2327 c-2 -7 -3 -78 -2 -157 l3 -145 32 -3 32 -3 3 63 3 63 128
5 c99 4 130 8 137 20 5 8 10 42 10 76 0 92 -4 94 -189 94 -115 0 -153 -3 -157
-13z m274 -84 l3 -43 -105 0 -106 0 0 38 c0 21 3 42 7 46 4 4 50 5 103 4 l95
-3 3 -42z"/>
<path d="M1360 2180 l0 -160 30 0 30 0 0 60 0 60 43 0 c37 -1 49 -7 106 -60
58 -55 67 -60 108 -60 54 0 51 6 -34 72 l-56 43 44 8 c64 13 69 20 69 98 0 99
0 99 -186 99 l-154 0 0 -160z m268 93 c12 -25 7 -64 -9 -74 -8 -5 -54 -8 -104
-7 l-90 3 -3 33 c-6 60 -2 62 102 62 81 0 97 -3 104 -17z"/>
<path d="M1836 2324 c-23 -23 -23 -265 0 -288 13 -13 44 -16 178 -16 207 0
196 -9 196 162 0 166 10 158 -198 158 -133 0 -163 -3 -176 -16z m304 -141 l0
-108 -125 3 -125 3 0 105 0 104 125 0 125 0 0 -107z"/>
<path d="M2340 2180 l0 -160 35 0 35 0 0 60 0 59 68 3 c64 3 67 4 67 28 0 24
-3 25 -67 28 l-68 3 0 44 0 45 125 0 125 0 0 25 0 25 -160 0 -160 0 0 -160z"/>
<path d="M2730 2180 l0 -160 166 0 165 0 -3 28 -3 27 -126 3 -127 3 -4 29 c-3
16 -2 34 2 39 3 6 37 11 75 13 64 3 70 5 73 26 3 21 0 22 -71 22 -78 0 -90 7
-82 46 2 11 4 22 4 27 1 4 57 7 126 7 l125 0 0 25 0 25 -160 0 -160 0 0 -160z"/>
<path d="M3186 2324 c-19 -19 -22 -134 -4 -152 8 -8 54 -12 140 -12 l128 0 0
-40 0 -40 -115 0 c-96 0 -115 3 -115 15 0 16 -12 18 -48 9 -19 -6 -22 -11 -17
-33 11 -46 28 -51 175 -51 172 0 180 4 180 95 0 92 -5 95 -156 95 l-124 0 0
40 0 40 106 0 c95 0 106 -2 111 -19 4 -15 10 -17 31 -12 34 9 39 34 13 60 -19
19 -33 21 -155 21 -109 0 -138 -3 -150 -16z"/>
<path d="M3656 2318 c-18 -26 -21 -109 -6 -139 10 -17 22 -19 140 -19 l130 0
0 -40 0 -40 -115 0 c-96 0 -115 3 -115 15 0 17 -23 20 -50 5 -16 -9 -18 -15
-9 -37 6 -15 16 -31 22 -35 7 -4 76 -8 154 -8 155 0 166 3 178 60 8 38 -2 105
-19 119 -7 6 -68 12 -137 13 l-124 3 -3 38 -3 37 110 0 c103 0 111 -1 111 -19
0 -16 5 -18 28 -12 33 9 40 36 16 62 -15 17 -32 19 -155 19 -131 0 -139 -1
-153 -22z"/>
<path d="M4110 2180 l0 -160 35 0 35 0 0 160 0 160 -35 0 -35 0 0 -160z"/>
<path d="M4326 2324 c-23 -23 -23 -265 0 -288 13 -13 44 -16 178 -16 207 0
196 -9 196 162 0 166 10 158 -198 158 -133 0 -163 -3 -176 -16z m304 -139 l0
-105 -125 0 -125 0 0 105 0 105 125 0 125 0 0 -105z"/>
<path d="M4830 2180 l0 -160 30 0 30 0 0 110 c0 100 7 129 25 100 3 -5 60 -55
125 -110 83 -70 127 -100 144 -100 l26 0 0 160 0 160 -36 0 -36 0 4 -110 c2
-60 2 -110 0 -110 -1 0 -62 50 -134 110 -85 72 -139 110 -154 110 l-24 0 0
-160z"/>
<path d="M5390 2213 c-40 -70 -81 -143 -92 -160 l-20 -33 36 0 c32 0 39 5 53
35 l17 35 108 0 108 0 17 -35 c15 -31 21 -35 55 -35 21 0 38 2 38 4 0 2 -40
73 -88 157 -86 151 -88 154 -124 157 l-36 3 -72 -128z m146 -6 c14 -27 23 -51
20 -54 -3 -3 -33 -5 -68 -5 -72 0 -72 0 -26 80 34 59 32 60 74 -21z"/>
<path d="M5790 2180 l0 -160 155 0 155 0 0 30 0 30 -120 0 -120 0 0 130 0 130
-35 0 -35 0 0 -160z"/>
<path d="M6320 2315 c0 -23 3 -24 73 -27 l72 -3 3 -132 3 -133 29 0 29 0 3
133 3 132 73 3 c69 3 72 4 72 27 l0 25 -180 0 -180 0 0 -25z"/>
<path d="M6757 2322 c-14 -15 -17 -41 -17 -145 0 -164 -9 -157 200 -157 85 0
160 4 167 8 22 14 29 57 27 157 -3 130 -2 121 -20 139 -13 13 -44 16 -178 16
-145 0 -165 -2 -179 -18z m303 -137 l0 -105 -125 0 -125 0 0 105 0 105 125 0
125 0 0 -105z"/>
<path d="M7283 2332 c-22 -14 -29 -56 -27 -157 2 -128 1 -121 20 -139 13 -13
44 -16 179 -16 204 0 195 -7 195 160 0 167 9 160 -193 160 -89 0 -167 -4 -174
-8z m297 -147 l0 -105 -127 0 -128 0 3 105 3 105 125 0 124 0 0 -105z"/>
<path d="M7780 2180 l0 -160 155 0 155 0 0 30 0 30 -120 0 -120 0 0 130 0 130
-35 0 -35 0 0 -160z"/>
<path d="M8196 2327 c-24 -17 -32 -102 -14 -137 13 -24 17 -25 143 -30 l130
-5 3 -37 3 -38 -120 0 c-101 0 -121 2 -121 15 0 8 -6 15 -14 15 -48 0 -61 -35
-26 -70 18 -18 33 -20 159 -20 176 0 176 0 171 115 -1 28 -6 55 -11 60 -6 6
-67 12 -137 15 l-127 5 0 35 0 35 108 3 c93 2 107 1 107 -13 0 -12 8 -15 27
-13 34 4 42 32 17 59 -15 17 -31 19 -149 19 -93 0 -136 -4 -149 -13z"/>
</g>
</svg>
